<svg viewBox="0 0 24 24" fill="none" xmlns="http://www.w3.org/2000/svg">
<path d="M17.6569 11.2929L16.2426 12.7071C14.4437 10.9082 14.4437 8.09176 16.2426 6.29289C18.0416 4.49402 20.858 4.49402 22.6569 6.29289C24.4558 8.09176 24.4558 10.9082 22.6569 12.7071L21.2426 11.2929C22.2562 10.2793 22.2562 8.72064 21.2426 7.70711C20.2291 6.69357 18.6703 6.69357 17.6569 7.70711C16.6433 8.72064 16.6433 10.2793 17.6569 11.2929Z" fill="#00ED64"/>
<path d="M13 22C13 22 5 16 5 9C5 5 8 2 13 2C18 2 21 5 21 9C21 16 13 22 13 22Z" fill="#00ED64"/>
</svg>
